<svg xmlns="http://www.w3.org/2000/svg" width="60" height="81" viewBox="0 0 60 81">
  <g id="_003-prize" data-name="003-prize" transform="translate(-39.942 0.002)">
    <path id="Path_16" data-name="Path 16" d="M99.383,30.4a8.5,8.5,0,0,0-.965-7.891L97.283,20.88a4.8,4.8,0,0,1-.82-2.148l-.241-1.969a8.553,8.553,0,0,0-4.547-6.542L89.908,9.3a4.844,4.844,0,0,1-1.732-1.524L87.042,6.144a8.628,8.628,0,0,0-7.087-3.694h-2a4.881,4.881,0,0,1-2.246-.55L73.944.978a8.663,8.663,0,0,0-8,0L64.172,1.9a4.883,4.883,0,0,1-2.246.55h-2a8.629,8.629,0,0,0-7.087,3.694L51.708,7.775A4.845,4.845,0,0,1,49.976,9.3l-1.768.922a8.554,8.554,0,0,0-4.547,6.542l-.241,1.968A4.8,4.8,0,0,1,42.6,20.88l-1.134,1.632A8.5,8.5,0,0,0,40.5,30.4l.708,1.854a4.79,4.79,0,0,1,.279,2.282l-.241,1.968a8.52,8.52,0,0,0,2.838,7.433l1.494,1.315a4.819,4.819,0,0,1,1.314,1.891L47.6,49a8.569,8.569,0,0,0,3.979,4.5l-7.8,18.9a1.867,1.867,0,0,0,.4,2.03,1.9,1.9,0,0,0,2.038.426l8.6-3.378,3.74,8.4A1.889,1.889,0,0,0,60.294,81h.026a1.889,1.889,0,0,0,1.722-1.164l7.9-19.14,7.9,19.14A1.888,1.888,0,0,0,79.564,81h.026a1.889,1.889,0,0,0,1.727-1.117l3.74-8.4,8.6,3.378a1.9,1.9,0,0,0,2.038-.426,1.866,1.866,0,0,0,.4-2.03L88.3,53.5A8.569,8.569,0,0,0,92.281,49l.708-1.854A4.819,4.819,0,0,1,94.3,45.255L95.8,43.94a8.521,8.521,0,0,0,2.838-7.432L98.4,34.539a4.79,4.79,0,0,1,.278-2.281l.709-1.854ZM93.293,41.132,91.8,42.447a8.583,8.583,0,0,0-2.341,3.369L88.75,47.67a4.823,4.823,0,0,1-3.363,2.959l-1.939.475a8.662,8.662,0,0,0-3.649,1.9L78.3,54.321a4.858,4.858,0,0,1-4.362,1.068L72,54.915a8.7,8.7,0,0,0-4.121,0l-1.939.475a4.857,4.857,0,0,1-4.362-1.068l-1.494-1.315a8.667,8.667,0,0,0-3.649-1.9L54.5,50.63a4.823,4.823,0,0,1-3.363-2.959l-.708-1.854a8.58,8.58,0,0,0-2.341-3.369l-1.495-1.315A4.783,4.783,0,0,1,45,36.96l.241-1.969a8.538,8.538,0,0,0-.5-4.064l-.708-1.854a4.774,4.774,0,0,1,.542-4.43l1.133-1.632a8.548,8.548,0,0,0,1.462-3.828l.241-1.968a4.8,4.8,0,0,1,2.552-3.673l1.768-.922a8.627,8.627,0,0,0,3.085-2.715l1.134-1.632A4.843,4.843,0,0,1,59.93,6.2h2a8.692,8.692,0,0,0,4-.98L67.7,4.3a4.864,4.864,0,0,1,4.493,0l1.768.922a8.693,8.693,0,0,0,4,.98h2a4.844,4.844,0,0,1,3.978,2.074l1.134,1.632a8.629,8.629,0,0,0,3.085,2.714l1.768.922a4.8,4.8,0,0,1,2.552,3.672l.241,1.969a8.549,8.549,0,0,0,1.462,3.828l1.134,1.632a4.773,4.773,0,0,1,.542,4.429l-.709,1.854a8.539,8.539,0,0,0-.5,4.063l.241,1.969a4.784,4.784,0,0,1-1.593,4.172ZM84.758,67.327a1.893,1.893,0,0,0-2.422.986l-2.681,6.024L73.367,59.1a8.647,8.647,0,0,0,7.441-1.973L82.3,55.815a4.861,4.861,0,0,1,2.049-1.068l.346-.085,6.227,15.086Zm-27.21.986a1.894,1.894,0,0,0-2.422-.986L48.96,69.748l6.227-15.086.346.085a4.864,4.864,0,0,1,2.049,1.068l1.495,1.315A8.618,8.618,0,0,0,66.517,59.1L60.229,74.336l-2.681-6.024Z" transform="translate(0 0)" fill="#3d3d3d"/>
    <path id="Path_17" data-name="Path 17" d="M95.068,75.305a20.732,20.732,0,1,0-20.7-20.732A20.742,20.742,0,0,0,95.068,75.305Zm0-37.682A16.951,16.951,0,1,1,78.14,54.574,16.959,16.959,0,0,1,95.068,37.623Z" transform="translate(-25.126 -24.704)" fill="#3d3d3d"/>
    <path id="Path_18" data-name="Path 18" d="M113.367,92.194h17.638a1.89,1.89,0,0,0,1.89-1.89v-11.2a1.89,1.89,0,0,0-.752-1.509l-8.819-6.65a1.89,1.89,0,0,0-2.277,0l-8.819,6.65a1.89,1.89,0,0,0-.752,1.509V90.3A1.89,1.89,0,0,0,113.367,92.194Zm1.89-12.145,6.928-5.225,6.928,5.225v8.364H124.2v-3.76a.893.893,0,0,0-.893-.893h-2.246a.893.893,0,0,0-.893.893v3.76h-4.912V80.049Z" transform="translate(-52.244 -51.71)" fill="#3d3d3d"/>
  </g>
</svg>
