<svg xmlns="http://www.w3.org/2000/svg" width="60" height="70" viewBox="0 0 60 70">
  <g id="_004-house-1" data-name="004-house-1" transform="translate(-16.015 0)">
    <path id="Path_19" data-name="Path 19" d="M75.185,51.4,47.27,30.231a2.075,2.075,0,0,0-2.511,0L16.845,51.4a2.1,2.1,0,0,0-.83,1.674V88.721a2.091,2.091,0,0,0,2.085,2.1H73.93a2.091,2.091,0,0,0,2.085-2.1V53.077A2.1,2.1,0,0,0,75.185,51.4ZM71.845,86.624H20.185v-32.5L46.015,34.533,71.844,54.122v32.5Z" transform="translate(0 -20.819)" fill="#3d3d3d"/>
    <path id="Path_20" data-name="Path 20" d="M19.356,25.109,46.015,4.755,72.674,25.109a2.067,2.067,0,0,0,2.92-.414,2.128,2.128,0,0,0-.41-2.957L47.27.425a2.064,2.064,0,0,0-2.511,0L16.845,21.738a2.129,2.129,0,0,0-.41,2.957A2.068,2.068,0,0,0,19.356,25.109Z" transform="translate(0)" fill="#3d3d3d"/>
    <path id="Path_21" data-name="Path 21" d="M80.972,90.241V95.92a4.483,4.483,0,0,0-3.822,4.427v14.611a4.486,4.486,0,0,0,4.48,4.48H96.541a4.486,4.486,0,0,0,4.48-4.48V100.346a4.486,4.486,0,0,0-4.48-4.48H85.195V90.241a3.891,3.891,0,0,1,7.782,0V92.59a2.111,2.111,0,1,0,4.222,0V90.241a8.113,8.113,0,0,0-16.226,0ZM96.8,100.346v14.611a.258.258,0,0,1-.258.258H81.63a.258.258,0,0,1-.258-.258V100.346a.258.258,0,0,1,.258-.258H96.541A.258.258,0,0,1,96.8,100.346Z" transform="translate(-43.071 -57.767)" fill="#3d3d3d"/>
  </g>
</svg>
