<svg xmlns="http://www.w3.org/2000/svg" width="18" height="19" viewBox="0 0 18 19">
  <g id="bath-iocn" transform="translate(-3 -2)" opacity="0.6">
    <path id="Path_41" data-name="Path 41" d="M6,19v2m12-2v2" fill="none" stroke="#3d3d3d" stroke-width="2"/>
    <g id="Group_975" data-name="Group 975">
      <circle id="Ellipse_47" data-name="Ellipse 47" cx="0.5" cy="0.5" r="0.5" transform="translate(15 8)" fill="#3d3d3d"/>
      <circle id="Ellipse_48" data-name="Ellipse 48" cx="0.5" cy="0.5" r="0.5" transform="translate(13 8)" fill="#3d3d3d"/>
      <circle id="Ellipse_49" data-name="Ellipse 49" cx="0.5" cy="0.5" r="0.5" transform="translate(11 8)" fill="#3d3d3d"/>
      <circle id="Ellipse_50" data-name="Ellipse 50" cx="0.5" cy="0.5" r="0.5" transform="translate(13 6)" fill="#3d3d3d"/>
      <circle id="Ellipse_51" data-name="Ellipse 51" cx="0.5" cy="0.5" r="0.5" transform="translate(13 10)" fill="#3d3d3d"/>
      <circle id="Ellipse_52" data-name="Ellipse 52" cx="0.5" cy="0.5" r="0.5" transform="translate(11 10)" fill="#3d3d3d"/>
      <circle id="Ellipse_53" data-name="Ellipse 53" cx="0.5" cy="0.5" r="0.5" transform="translate(17 10)" fill="#3d3d3d"/>
      <circle id="Ellipse_54" data-name="Ellipse 54" cx="0.5" cy="0.5" r="0.5" transform="translate(15 10)" fill="#3d3d3d"/>
    </g>
    <g id="Group_976" data-name="Group 976">
      <path id="Path_42" data-name="Path 42" d="M4,13H20v2a5,5,0,0,1-5,5H9a5,5,0,0,1-5-5Zm0-1V7A3,3,0,0,1,7,4H8" fill="none" stroke="#3d3d3d" stroke-width="2"/>
      <path id="Path_43" data-name="Path 43" d="M8,6.3V4A1,1,0,0,1,9,3h2.3a.7.7,0,0,1,.5,1.2L9.2,6.8A.7.7,0,0,1,8,6.3ZM3,13H21" fill="none" stroke="#3d3d3d" stroke-width="2"/>
    </g>
  </g>
</svg>
