<svg xmlns="http://www.w3.org/2000/svg" width="20" height="19" viewBox="0 0 20 19">
  <g id="bed-icon" transform="translate(-2 -2)" opacity="0.6">
    <path id="Path_49" data-name="Path 49" d="M4,19v2m16-2v2M8,11h8a5,5,0,0,1,5,5v3H3V16a5,5,0,0,1,5-5Z" fill="none" stroke="#3d3d3d" stroke-width="2"/>
    <path id="Path_50" data-name="Path 50" d="M6.5,11V9A1.5,1.5,0,0,1,8,7.5h2A1.5,1.5,0,0,1,11.5,9v1m1,0V9A1.5,1.5,0,0,1,14,7.5h2A1.5,1.5,0,0,1,17.5,9v2" fill="none" stroke="#3d3d3d" stroke-width="1"/>
    <path id="Path_51" data-name="Path 51" d="M20,13V5a2,2,0,0,0-2-2H6A2,2,0,0,0,4,5v8" fill="none" stroke="#3d3d3d" stroke-width="2"/>
    <path id="Path_52" data-name="Path 52" d="M3.5,15.5h17" fill="none" stroke="#3d3d3d" stroke-width="1"/>
  </g>
</svg>
