<svg xmlns="http://www.w3.org/2000/svg" width="20" height="18" viewBox="0 0 20 18">
  <g id="car-iocn" transform="translate(-2 -4)" opacity="0.6">
    <path id="Path_56" data-name="Path 56" d="M21,10H19M5,10H3" fill="none" stroke="#3d3d3d" stroke-miterlimit="10" stroke-width="2"/>
    <path id="Path_57" data-name="Path 57" d="M9.5,15.5h5m-9-5h13" fill="none" stroke="#3d3d3d" stroke-miterlimit="10" stroke-width="1"/>
    <path id="Path_58" data-name="Path 58" d="M20.6,12.6,19,10,17.5,6.3A2,2,0,0,0,15.6,5H8.4A2,2,0,0,0,6.5,6.3L5,10,3.4,12.6A3,3,0,0,0,3,14.1V17a2,2,0,0,0,2,2H19a2,2,0,0,0,2-2V14.1a3,3,0,0,0-.4-1.5Z" fill="none" stroke="#3d3d3d" stroke-width="2"/>
    <path id="Path_59" data-name="Path 59" d="M7,19v1a1,1,0,0,1-2,0V19m14,0v1a1,1,0,0,1-2,0V19" fill="#3d3d3d" stroke="#3d3d3d" stroke-width="2"/>
    <path id="Path_60" data-name="Path 60" d="M3.5,14.5H7a.5.5,0,0,1,.5.5v.5a1,1,0,0,1-1,1h-3Zm13.5,0h3.5v2h-3a1,1,0,0,1-1-1V15A.5.5,0,0,1,17,14.5Z" fill="none" stroke="#3d3d3d" stroke-width="1"/>
  </g>
</svg>
