<svg xmlns="http://www.w3.org/2000/svg" width="60" height="63" viewBox="0 0 60 63">
  <g id="home" transform="translate(-7.443 0)">
    <path id="Path_22" data-name="Path 22" d="M10.223,20.633,32.4,3.907l22.18,16.725a1.735,1.735,0,1,0,2.089-2.77L33.447.349a1.734,1.734,0,0,0-2.089,0L8.134,17.862a1.735,1.735,0,1,0,2.089,2.77Z" transform="translate(-0.001 0)" fill="#3d3d3d"/>
    <path id="Path_23" data-name="Path 23" d="M65.464,68.171a8.686,8.686,0,0,0,1.19-9.138,8.506,8.506,0,0,0-7.446-5.075q-.253-.013-.509-.013a10.039,10.039,0,0,0-1.551.125V48.734a1.7,1.7,0,0,0-.688-1.362L33.336,30.151a1.744,1.744,0,0,0-2.08,0L8.131,47.372a1.7,1.7,0,0,0-.688,1.362V77.726A1.717,1.717,0,0,0,9.17,79.432H44.793l4.383,5.354a1.741,1.741,0,0,0,2.687,0l4.891-5.975h0l8.709-10.639ZM10.9,49.584,32.3,33.65l21.4,15.934v5.71a9.931,9.931,0,0,0-3.174,2.921,9.94,9.94,0,0,0-8.18-4.269q-.256,0-.509.013a8.506,8.506,0,0,0-7.447,5.075,8.686,8.686,0,0,0,1.191,9.138L42,76.021H10.9V49.584ZM38.262,66.027a5.324,5.324,0,0,1-.723-5.6,5.111,5.111,0,0,1,4.468-3.059q.165-.008.333-.008a6.42,6.42,0,0,1,6.452,6.372,1.728,1.728,0,0,0,3.455,0A6.42,6.42,0,0,1,58.7,57.357q.168,0,.334.009A5.111,5.111,0,0,1,63.5,60.425a5.324,5.324,0,0,1-.723,5.6L50.52,81,38.262,66.027Z" transform="translate(0 -22.421)" fill="#3d3d3d"/>
  </g>
</svg>
